<svg width="201" height="88" viewBox="0 0 201 88" fill="none" xmlns="http://www.w3.org/2000/svg">
    <path d="M198.763 1C195.839 7.38313 192.074 11.1427 188.427 14.6017C183.179 19.5737 176.098 23.2059 172.191 25.0705C163.342 29.2885 145.37 35.962 119.211 37.689C110.143 38.285 101.213 38.3614 92.1549 39.258C80.9017 40.3737 77.3815 40.6538 73.0208 42.824C71.5939 43.6479 70.2208 44.5616 68.9098 45.5596C65.7768 48.0507 62.6693 50.7813 59.302 53.2622C57.6109 54.5247 55.8469 55.6865 54.0192 56.7416C52.1506 57.8229 50.1689 58.6958 48.1098 59.3447C47.5691 59.516 47.0129 59.6337 46.4491 59.6962C45.8836 59.7778 45.3182 59.8083 44.768 59.8389C43.6788 59.8717 42.5885 59.8428 41.5026 59.7523C40.4328 59.6657 39.3732 59.5281 38.3288 59.3498C37.8194 59.2581 37.31 59.1562 36.7649 59.0391C36.2198 58.9219 35.746 58.7996 35.1908 58.6366L33.6625 58.1883L34.4266 56.7518C35.0893 55.5505 35.5473 54.2472 35.7817 52.8954C36.1181 51.564 36.2707 50.1928 36.2351 48.82C36.2239 48.4892 36.195 48.1593 36.1485 47.8317C36.1485 47.6687 36.1026 47.5056 36.0772 47.3222C36.0429 47.1845 36.0021 47.0485 35.9549 46.9147C35.8032 46.315 35.5773 45.7366 35.2825 45.1928L35.1347 44.9279C35.0125 45.361 34.8749 45.7838 34.7323 46.2117C34.4405 47.0459 34.1003 47.8624 33.7134 48.6569C33.3213 49.4551 32.8789 50.2276 32.3889 50.9697C32.2565 51.1582 32.1495 51.3314 32.0018 51.5301C31.854 51.7288 31.6859 51.9428 31.528 52.1211C31.2121 52.4929 30.8912 52.819 30.5652 53.1399C29.9221 53.7554 29.2416 54.3304 28.5275 54.8618C27.8075 55.4044 27.0518 55.898 26.2656 56.3391C25.8541 56.575 25.4288 56.7859 24.992 56.9708C24.773 57.0676 24.5335 57.1542 24.289 57.2408L24.1107 57.307L23.9579 57.3529L23.6471 57.4497C22.017 57.9591 20.3919 58.3463 18.833 58.7232C17.3769 59.0184 15.9474 59.4324 14.559 59.9611C14.286 60.0788 14.0206 60.2132 13.7642 60.3636C13.5585 60.4969 13.3627 60.645 13.1784 60.8068C12.7561 61.181 12.3658 61.59 12.0118 62.0294C11.5747 62.5597 11.2098 63.1455 10.9267 63.7717C10.7761 64.1004 10.6534 64.4412 10.5599 64.7905C10.5141 64.9637 10.4733 65.142 10.4428 65.2999C10.4122 65.4579 10.3816 65.6769 10.3715 65.8094L10.3001 66.6499L9.67864 66.9454C9.03166 67.246 8.40507 67.5312 7.74281 67.8063L7.23338 68.0152L6.7749 68.1935C6.49471 68.3107 6.21962 68.4329 5.95472 68.5756C5.43783 68.8531 4.95849 69.1955 4.52832 69.5944C4.11893 69.9814 3.77486 70.4322 3.50947 70.9291C3.25237 71.4305 3.08022 71.971 3.00004 72.5287C2.89808 73.1471 2.83851 73.7718 2.82174 74.3983C2.79627 75.0402 2.82174 75.6872 2.82174 76.3443C2.82174 76.5175 2.82174 76.6907 2.82174 76.8538L3.52475 76.5787C4.21248 76.3036 4.97662 76.0081 5.72038 75.7789C6.46415 75.5496 7.24867 75.351 7.97205 75.1879L10.1728 74.6785L11.2782 74.4187C11.6603 74.3321 12.0475 74.2506 12.4346 74.1895C13.2095 74.0529 13.9922 73.9644 14.778 73.9246C16.3466 73.8384 17.92 73.9393 19.4647 74.2251C21.0068 74.5092 22.5064 74.9885 23.9273 75.6515C24.6299 75.983 25.3105 76.359 25.965 76.7774C26.3013 76.9862 26.612 77.2053 26.9228 77.4243L27.8499 78.0764C30.1539 79.7734 32.6056 81.2601 35.1755 82.5186C35.2675 82.5618 35.3388 82.6394 35.3741 82.7347C35.4093 82.83 35.4057 82.9354 35.364 83.028C35.3445 83.0754 35.3158 83.1183 35.2795 83.1544C35.2431 83.1904 35.1999 83.2187 35.1524 83.2377C35.1049 83.2567 35.054 83.266 35.0029 83.265C34.9517 83.264 34.9013 83.2527 34.8545 83.2318C32.1872 82.0695 29.6298 80.6697 27.2131 79.0494L26.2656 78.4432C25.9498 78.2394 25.639 78.0407 25.3282 77.8573C23.4426 76.7714 21.3683 76.0524 19.2151 75.7381C17.0693 75.4338 14.8868 75.5063 12.7658 75.9521C12.4143 76.0285 12.0679 76.11 11.7214 76.2017L10.6364 76.5023L8.4611 77.1136C7.72243 77.3122 7.04999 77.5007 6.37245 77.7453C5.69491 77.9898 5.05303 78.2547 4.33474 78.5756L2.33269 79.4875L1.03875 80.053L0.804409 78.6266C0.686386 77.918 0.60477 77.2039 0.559884 76.487C0.504552 75.7701 0.487547 75.0508 0.508941 74.3321C0.529121 73.594 0.604042 72.8584 0.733089 72.1314C0.869243 71.3394 1.13062 70.5742 1.50742 69.8644C2.28377 68.4722 3.43434 67.3252 4.82889 66.5531C5.16001 66.3596 5.49624 66.1813 5.84774 66.0437L6.35717 65.8247L6.77999 65.6209C7.1264 65.4426 7.47791 65.249 7.82941 65.0554C7.82941 64.8415 7.82941 64.6326 7.82941 64.4186C7.82941 63.9703 7.88036 63.522 7.91602 63.0636C7.98125 62.102 8.15906 61.1513 8.44582 60.2311C8.78613 59.2225 9.35644 58.3069 10.1116 57.5566C10.5149 57.1657 10.9629 56.8237 11.4463 56.5378C11.8856 56.2783 12.3417 56.0486 12.8116 55.8501C14.4453 55.2261 16.1291 54.7421 17.8448 54.4033C19.4342 54.0569 20.9625 53.7461 22.4296 53.3233L22.7098 53.2316L22.8473 53.1959L22.9543 53.1603C23.1 53.1183 23.2429 53.0672 23.3822 53.0075C23.5366 52.9507 23.6879 52.8861 23.8356 52.8139C23.9834 52.7527 24.1413 52.6712 24.2941 52.5999C24.9326 52.2745 25.5486 51.9069 26.1382 51.4995C26.7335 51.0932 27.3034 50.6508 27.8448 50.175C28.1046 49.9356 28.3542 49.7013 28.5886 49.472L28.8942 49.1307C28.991 49.0084 29.1031 48.8505 29.2101 48.713C29.6477 48.1359 30.0459 47.53 30.4021 46.8994C30.7611 46.2625 31.0843 45.606 31.3701 44.933C31.6495 44.2518 31.8877 43.5543 32.0833 42.8444C32.18 42.4929 32.2667 42.1363 32.338 41.7797C32.3736 41.6014 32.4093 41.4282 32.4399 41.2702L32.4755 41.0104L32.5061 40.7965L33.0155 37.1286L35.4047 39.7165C35.5779 39.9101 35.6951 40.0476 35.8326 40.2259C35.9702 40.4042 36.0874 40.5469 36.2147 40.7048C36.4643 41.0308 36.7241 41.3568 36.9228 41.7236C37.3816 42.4098 37.787 43.1302 38.1353 43.8785C38.5031 44.6619 38.7767 45.4861 38.9503 46.334C38.9962 46.5479 39.0318 46.7924 39.0573 46.986C39.0828 47.1796 39.1032 47.3936 39.1185 47.5973C39.1541 48.0049 39.1745 48.4175 39.1694 48.8302C39.1443 50.4283 38.9166 52.0168 38.4919 53.5576L38.3645 54.0976C38.3136 54.2963 38.2626 54.5001 38.2066 54.6937C38.0945 55.091 37.9671 55.4833 37.8194 55.8653C37.7277 56.0997 37.6309 56.334 37.529 56.5633C37.9519 56.6651 38.3849 56.7568 38.8128 56.8333C39.7645 57.0167 40.7281 57.1324 41.6962 57.1797C42.6427 57.2298 43.5919 57.182 44.5286 57.037C44.9786 56.9632 45.4241 56.8645 45.8633 56.7416C46.2963 56.6091 46.6834 56.441 47.1419 56.2933C48.939 55.6414 50.6552 54.7851 52.2566 53.741C53.9093 52.6866 55.4918 51.526 56.9943 50.2667C60.0508 47.7196 62.8832 44.8923 65.8838 42.0395C66.6377 41.3263 67.4121 40.6182 68.2169 39.9152C68.6245 39.5688 69.032 39.2122 69.46 38.8657C69.8879 38.5193 70.3005 38.1984 70.7284 37.8469L71.3499 37.3884H71.3805C73.1336 35.894 75.0533 34.6069 77.1014 33.5524C93.5049 25.3608 113.739 25.6257 132.12 22.0037C150.5 18.3817 187.148 11.3312 198.763 1Z" fill="#EA5B0C" stroke="#EA5B0C" stroke-width="0.382071" stroke-miterlimit="10"/>
    <path d="M176.624 28.4426C171.698 32.8186 158.707 40.9236 149.919 43.3994C144.137 45.0347 136.537 46.8126 124.958 47.322C117.907 47.6379 114.285 47.4901 102.074 46.9247C99.5269 46.8075 80.6373 46.9247 69.3535 53.7255C80.2705 41.9119 107.398 43.0581 120.495 42.5181C131.004 42.0698 139.675 40.7911 149.991 38.6516C160.307 36.512 170.444 32.3448 176.624 28.4426Z" fill="#EA5B0C"/>
    <path d="M149.965 38.631C139.649 40.7706 130.979 42.0493 120.47 42.4976C107.372 43.058 80.2248 41.9118 69.3281 53.705C80.6119 46.8889 99.4964 46.787 102.049 46.9042C114.275 47.4696 117.882 47.6173 124.932 47.3015C136.537 46.7921 144.138 45.0142 149.894 43.3789C158.682 40.9031 171.672 32.7981 176.598 28.4221C170.444 32.3447 160.256 36.4965 149.965 38.631ZM149.879 43.2566C141.749 45.5767 133.366 46.8907 124.917 47.1691C117.871 47.4798 114.362 47.3474 102.044 46.7717C97.9681 46.5832 80.9431 47.1232 70.2043 53.0377C80.0057 43.5929 100.77 43.1293 114.637 42.8185C116.751 42.7676 118.743 42.7268 120.47 42.6555C130.184 42.2378 138.733 41.1272 149.986 38.7839C158.784 36.9601 168.325 33.4349 174.973 29.6142C169.247 34.1634 157.887 41.005 149.879 43.2566Z" fill="#EA5B0C"/>
    <path d="M82.7871 55.4324C87.5401 54.3422 91.0704 54.276 97.1122 54.7905C103.791 55.3559 106.501 56.3188 114.489 57.1644C121.862 58.0218 129.332 57.3895 136.455 55.305C143.857 53.1348 149.807 49.7013 152.63 46.1812C148.804 48.82 142.512 50.7049 136.15 51.7849C129.859 52.8687 123.468 53.2582 117.092 52.9463C108.697 52.5388 93.8977 49.5841 82.7871 55.4324Z" fill="#EA5B0C" stroke="#EA5B0C" stroke-width="0.208865" stroke-miterlimit="10"/>
    <path d="M46.6838 65.0452L44.8804 67.628L38.864 75.7788C38.7978 76.2169 39.129 76.4462 39.8829 76.4614L48.0898 76.4869L54.3506 76.4614L52.8224 78.2139H39.4244C36.5512 78.2139 34.9601 77.7265 34.6511 76.7518C34.5844 76.5701 34.5585 76.376 34.5753 76.1832C34.592 75.9904 34.6509 75.8036 34.7479 75.6362L40.5401 67.5312L42.3434 65.0452H46.6787H46.6838Z" fill="#1D1D1B"/>
    <path d="M69.3584 78.1932H61.4673C58.5942 78.1932 57.0031 77.7059 56.694 76.7312C56.6287 76.5492 56.6035 76.3553 56.6202 76.1627C56.637 75.9702 56.6951 75.7835 56.7908 75.6155L62.5881 67.5258C63.8414 66.3367 65.416 65.5414 67.1169 65.2385C67.6569 65.1722 68.1969 65.1213 68.7369 65.0907C69.2769 65.0602 69.8321 65.0398 70.3823 65.0398H78.1307C78.6401 65.0398 79.0732 65.0856 79.496 65.1264C79.9188 65.1672 80.306 65.2181 80.6626 65.2843C81.0575 65.3741 81.4168 65.5796 81.6944 65.8745C81.9721 66.1694 82.1556 66.5403 82.2214 66.94V67.6735L76.6432 75.7582C75.767 77.3815 73.3387 78.1932 69.3584 78.1932ZM75.5224 66.7973H70.041C68.9381 66.7091 67.8381 67.0003 66.9233 67.6226L60.907 75.7734C60.7949 76.1504 61.177 76.3746 62.0532 76.4561L70.1174 76.4815C71.1057 76.4815 71.7985 76.2472 72.1857 75.8244L77.983 67.6735C77.6926 67.1641 77.1068 66.8941 76.2305 66.7973H75.5224Z" fill="#1D1D1B"/>
    <path d="M89.2606 72.3048H84.7318L82.1847 75.7638L82.1337 75.8402C82.1057 75.9172 82.0885 75.9978 82.0828 76.0796L80.5545 78.1988H76.3008L78.0532 75.6211L85.6539 65.0454H99.4084C99.9178 65.0454 100.351 65.0913 100.774 65.132C101.197 65.1728 101.584 65.2237 101.945 65.2899C102.34 65.3797 102.7 65.5852 102.977 65.8801C103.255 66.175 103.438 66.5459 103.504 66.9456V67.6791L101.309 71.0872C100.692 71.9023 99.6377 72.32 98.145 72.3557H96.4843V78.1937H92.2968V72.3048H89.2759H89.2606ZM96.79 66.8029H88.8225L88.1908 67.6282L85.9493 70.5014H95.7915C96.2239 70.5235 96.6549 70.4373 97.0455 70.2504C97.4361 70.0636 97.7738 69.7821 98.0279 69.4316L99.2505 67.6791C98.955 67.1697 98.3692 66.8997 97.493 66.8029H96.79Z" fill="#1D1D1B"/>
    <path d="M110.525 72.3048H105.996L103.449 75.7638L103.398 75.8402C103.371 75.9173 103.356 75.998 103.352 76.0796L101.824 78.1988H97.5957L99.3481 75.6211L106.949 65.0454H120.703C121.187 65.0454 121.641 65.0913 122.064 65.132C122.486 65.1728 122.879 65.2237 123.235 65.2899C123.63 65.3797 123.989 65.5852 124.267 65.8801C124.545 66.175 124.728 66.5459 124.794 66.9456V67.6791L122.603 71.0872C121.982 71.9023 120.927 72.32 119.435 72.3557H117.779V78.1937H113.587V72.3048H110.566H110.525ZM118.054 66.8029H110.087L109.455 67.6282L107.214 70.5014H117.056C117.489 70.5235 117.921 70.4372 118.312 70.2504C118.703 70.0636 119.042 69.7822 119.297 69.4316L120.515 67.6791C120.219 67.1697 119.639 66.8997 118.762 66.8029H118.054Z" fill="#1D1D1B"/>
    <path d="M146.363 65.1417H147.519L145.67 67.6888L143.428 70.3684C142.943 70.9865 142.324 71.487 141.619 71.8328C140.913 72.1786 140.139 72.3606 139.353 72.3654H134.676L131.727 76.3491L130.336 78.1932H126.536L130.774 72.2991H125.904C123.693 72.2991 123.148 71.642 124.269 70.3277L128.049 65.0398H132.43L130.484 67.5869L128.39 70.4601H139.057L143.347 65.1468L146.363 65.1417Z" fill="#1D1D1B"/>
    <path d="M151.188 76.0281L149.496 78.6313H145.518L147.209 76.0281H151.188Z" fill="#1D1D1B"/>
    <path d="M158.162 76.9196H166.878C167.148 76.9233 167.417 76.873 167.668 76.7719C167.873 76.6934 168.051 76.555 168.177 76.3745L175.309 65.2639H179.283L171.789 76.8941C171.35 77.5156 170.718 77.9741 169.991 78.1983C168.86 78.5307 167.683 78.6769 166.506 78.6313H156.307C155.45 78.6689 154.592 78.5814 153.76 78.3715C153.251 78.1983 152.971 77.9436 152.971 77.6175C152.993 77.3554 153.088 77.1047 153.246 76.8941L160.765 65.2639H164.744L157.586 76.3745C157.545 76.4424 157.522 76.5195 157.52 76.5987C157.52 76.8126 157.734 76.9196 158.162 76.9196Z" fill="#1D1D1B"/>
    <path d="M179.787 76.9199H192.951L191.84 78.6316H173.338L174.392 76.9963L194.051 66.9861H180.862L181.957 65.2744H200.501L199.451 66.9097L179.787 76.9199Z" fill="#1D1D1B"/>
    <path d="M45.166 85.0193V84.678H48.1309V85.0193H46.8675V87.9027H46.4243V85.0193H45.166Z" fill="#1D1D1B"/>
    <path d="M49.3633 87.9027V84.678H49.8014V86.0687H52.0836V84.678H52.5166V87.9027H52.0836V86.41H49.8014V87.9027H49.3633Z" fill="#1D1D1B"/>
    <path d="M54.2949 87.9027V84.678H57.0713V85.0193H54.733V86.0738H57.0051V86.4049H54.733V87.5664H57.0713V87.9027H54.2949Z" fill="#1D1D1B"/>
    <path d="M61.208 84.678H61.6461V86.7972C61.6404 86.9427 61.6542 87.0883 61.6868 87.2302C61.7143 87.3088 61.7638 87.3777 61.8295 87.4289C61.9058 87.4833 61.9925 87.5215 62.0842 87.541C62.2528 87.566 62.4232 87.5762 62.5936 87.5715H63.0113C63.1817 87.5764 63.3522 87.5662 63.5208 87.541C63.6128 87.5225 63.6997 87.4843 63.7755 87.4289C63.8419 87.3806 63.8917 87.313 63.9181 87.2353C63.9483 87.0913 63.9603 86.9442 63.9538 86.7972V84.678H64.397V86.8532C64.4141 87.0101 64.3961 87.1687 64.3441 87.3177C64.2921 87.4666 64.2075 87.6021 64.0964 87.7142C63.7809 87.9083 63.4107 87.9942 63.0419 87.9587H62.5631C62.1928 87.9931 61.8212 87.9073 61.5034 87.7142C61.3933 87.6016 61.3097 87.466 61.2586 87.317C61.2074 87.1681 61.1902 87.0097 61.208 86.8532V84.678Z" fill="#1D1D1B"/>
    <path d="M65.9082 87.9027V87.5206L68.4553 84.9989H66.0101V84.678H68.9036V85.055L66.3565 87.5664H68.9036V87.9027H65.9082Z" fill="#1D1D1B"/>
    <path d="M70.5 87.903V84.6783H72.339C72.6319 84.6479 72.9273 84.7028 73.1898 84.8363C73.2706 84.9217 73.3313 85.0242 73.3674 85.1361C73.4035 85.2481 73.4142 85.3666 73.3986 85.4832C73.4093 85.659 73.3742 85.8345 73.2968 85.9927C73.2066 86.1051 73.0775 86.1796 72.9351 86.2015C73.1043 86.2215 73.2603 86.3031 73.3732 86.4308C73.4689 86.5993 73.5115 86.7929 73.4954 86.986C73.5128 87.1178 73.4982 87.2519 73.453 87.3768C73.4078 87.5018 73.3333 87.6141 73.2356 87.7043C72.9187 87.8561 72.5667 87.9195 72.2168 87.8877L70.5 87.903ZM70.9279 86.0691H72.3594C72.521 86.0882 72.6843 86.0523 72.823 85.9672C72.9045 85.901 72.9453 85.7532 72.9453 85.5189C72.9453 85.2846 72.9045 85.1623 72.8179 85.1063C72.6098 85.0289 72.3869 84.9993 72.1658 85.0197H70.9279V86.0691ZM70.9279 87.5668H72.3747C72.5501 87.5804 72.726 87.547 72.8841 87.47C72.9707 87.4038 73.0166 87.2306 73.0166 86.9606C73.0166 86.6906 72.9656 86.5785 72.8637 86.5072C72.6131 86.4151 72.3451 86.3803 72.0792 86.4053H70.9075L70.9279 87.5668Z" fill="#1D1D1B"/>
    <path d="M75.1191 87.9027V84.678H77.8955V85.0193H75.5572V86.0738H77.8293V86.4049H75.5572V87.5664H77.8955V87.9027H75.1191Z" fill="#1D1D1B"/>
    <path d="M79.4199 87.9027V84.678H79.8529V86.0432H80.1942L81.7989 84.678H82.3746L80.5508 86.2063L82.5886 87.8925H81.9925L80.1739 86.3642H79.8326V87.8925L79.4199 87.9027Z" fill="#1D1D1B"/>
    <path d="M86.5312 87.9027V84.678H86.9744V87.9027H86.5312Z" fill="#1D1D1B"/>
    <path d="M88.7461 87.9027V84.678H89.444L91.5887 87.5562V84.678H91.9911V87.9027H91.3289L89.1842 85.0193V87.9027H88.7461Z" fill="#1D1D1B"/>
    <path d="M93.2441 85.0193V84.678H96.209V85.0193H94.9405V87.9027H94.5024V85.0193H93.2441Z" fill="#1D1D1B"/>
    <path d="M97.4434 87.9027V84.678H100.22V85.0193H97.8764V86.0738H100.143V86.4049H97.8662V87.5664H100.21V87.9027H97.4434Z" fill="#1D1D1B"/>
    <path d="M101.736 87.9028V84.6781H103.524C103.839 84.6517 104.154 84.7061 104.441 84.836C104.53 84.9017 104.6 84.9893 104.645 85.0902C104.69 85.1911 104.707 85.3019 104.696 85.4117V85.9211C104.702 86.0645 104.657 86.2055 104.569 86.3185C104.466 86.4239 104.328 86.489 104.182 86.5019C104.334 86.5182 104.475 86.5888 104.579 86.7005C104.668 86.8324 104.709 86.9905 104.696 87.1488V87.9232H104.217V87.2609C104.228 87.1775 104.221 87.0929 104.197 87.0122C104.174 86.9316 104.134 86.8567 104.08 86.7922C103.929 86.6951 103.749 86.652 103.57 86.67H102.18V87.9232L101.736 87.9028ZM103.438 85.0194H102.18V86.3134H103.443C103.664 86.3324 103.886 86.2975 104.09 86.2115C104.144 86.1704 104.187 86.1159 104.213 86.0534C104.24 85.9909 104.25 85.9225 104.243 85.8549V85.4779C104.25 85.4101 104.24 85.3416 104.214 85.2785C104.189 85.2154 104.148 85.1596 104.095 85.1162C103.887 85.0304 103.661 84.9971 103.438 85.0194Z" fill="#1D1D1B"/>
    <path d="M106.363 87.9027V84.678H107.036L109.18 87.5562V84.678H109.619V87.9027H108.946L106.796 85.0193V87.9027H106.363Z" fill="#1D1D1B"/>
    <path d="M110.979 87.9027L112.441 84.678H113.164L114.631 87.9027H114.183L113.806 87.0774H111.804L111.432 87.9027H110.979ZM111.946 86.7615H113.663L112.879 85.0193H112.736L111.946 86.7615Z" fill="#1D1D1B"/>
    <path d="M114.998 85.0193V84.678H117.973V85.0193H116.705V87.9027H116.267V85.0193H114.998Z" fill="#1D1D1B"/>
    <path d="M119.195 87.9027V84.678H119.639V87.9027H119.195Z" fill="#1D1D1B"/>
    <path d="M121.284 85.7432C121.266 85.585 121.285 85.4247 121.34 85.2752C121.395 85.1257 121.484 84.9911 121.6 84.8823C121.937 84.687 122.327 84.6016 122.716 84.6377H123.225C123.613 84.602 124.002 84.6856 124.341 84.8772C124.457 84.987 124.545 85.1227 124.599 85.2731C124.653 85.4236 124.671 85.5846 124.651 85.7432V86.8538C124.67 87.012 124.651 87.1723 124.596 87.3218C124.541 87.4713 124.452 87.6059 124.336 87.7147C124 87.9095 123.612 87.995 123.225 87.9592H122.716C122.327 87.9954 121.937 87.9099 121.6 87.7147C121.484 87.6059 121.395 87.4713 121.34 87.3218C121.285 87.1723 121.266 87.012 121.284 86.8538V85.7432ZM123.082 84.974H122.838C122.64 84.9701 122.443 84.9821 122.247 85.0096C122.141 85.0311 122.04 85.0745 121.951 85.137C121.874 85.1897 121.817 85.2668 121.788 85.356C121.746 85.512 121.729 85.6736 121.737 85.8349V86.7519C121.729 86.9115 121.746 87.0715 121.788 87.2256C121.817 87.3162 121.874 87.395 121.951 87.4498C122.041 87.5086 122.142 87.5501 122.247 87.5721C122.442 87.6023 122.64 87.6142 122.838 87.6077H123.067C123.266 87.6141 123.466 87.6022 123.663 87.5721C123.768 87.5501 123.869 87.5086 123.959 87.4498C124.034 87.3968 124.09 87.3222 124.122 87.2358C124.159 87.0774 124.175 86.9145 124.167 86.7519V85.8349C124.174 85.6722 124.159 85.5094 124.122 85.3509C124.091 85.2614 124.032 85.1843 123.953 85.1319C123.865 85.073 123.767 85.0315 123.663 85.0096C123.466 84.9795 123.266 84.9675 123.067 84.974H123.082Z" fill="#1D1D1B"/>
    <path d="M126.287 87.9027V84.678H126.96L129.104 87.5562V84.678H129.542V87.9027H128.865L126.72 85.0193V87.9027H126.287Z" fill="#1D1D1B"/>
    <path d="M130.902 87.9027L132.364 84.678H133.083L134.555 87.9027H134.102L133.725 87.0774H131.728L131.361 87.9027H130.902ZM131.87 86.7615H133.587L132.797 85.0193H132.655L131.87 86.7615Z" fill="#1D1D1B"/>
    <path d="M135.904 87.9027V84.678H136.312V87.5664H138.558V87.9027H135.904Z" fill="#1D1D1B"/>
    <path d="M142.629 87.9027V84.678H143.057V87.5664H145.303V87.9027H142.629Z" fill="#1D1D1B"/>
    <path d="M146.572 85.7432C146.553 85.5854 146.571 85.4254 146.625 85.2759C146.679 85.1264 146.767 84.9916 146.882 84.8823C147.22 84.687 147.61 84.6016 147.998 84.6377H148.508C148.897 84.6023 149.288 84.6858 149.628 84.8772C149.742 84.9889 149.828 85.1249 149.881 85.275C149.934 85.425 149.952 85.5851 149.934 85.7432V86.8538C149.952 87.012 149.933 87.1723 149.878 87.3218C149.823 87.4713 149.734 87.6059 149.618 87.7147C149.282 87.9095 148.894 87.995 148.508 87.9592H147.998C147.61 87.9954 147.22 87.9099 146.882 87.7147C146.767 87.6054 146.679 87.4706 146.625 87.3211C146.571 87.1716 146.553 87.0116 146.572 86.8538V85.7432ZM148.365 84.974H148.12C147.924 84.9701 147.729 84.982 147.535 85.0096C147.427 85.031 147.324 85.0743 147.234 85.137C147.157 85.1897 147.099 85.2668 147.071 85.356C147.031 85.5125 147.014 85.6737 147.02 85.8349V86.7519C147.014 86.9114 147.031 87.071 147.071 87.2256C147.099 87.3162 147.157 87.395 147.234 87.4498C147.326 87.5087 147.428 87.5501 147.535 87.5721C147.728 87.6023 147.924 87.6143 148.12 87.6077H148.365C148.564 87.6141 148.764 87.6022 148.961 87.5721C149.068 87.5501 149.17 87.5087 149.261 87.4498C149.335 87.3966 149.39 87.3218 149.419 87.2358C149.457 87.0774 149.473 86.9145 149.465 86.7519V85.8349C149.472 85.6722 149.457 85.5094 149.419 85.3509C149.391 85.2617 149.334 85.1846 149.256 85.1319C149.166 85.073 149.066 85.0316 148.961 85.0096C148.764 84.9795 148.564 84.9675 148.365 84.974Z" fill="#1D1D1B"/>
    <path d="M151.418 85.7433C151.399 85.5851 151.418 85.4248 151.473 85.2753C151.528 85.1258 151.617 84.9912 151.734 84.8824C152.069 84.6869 152.458 84.6014 152.844 84.6379H153.354C153.725 84.6124 154.097 84.6826 154.434 84.8416C154.544 84.9041 154.636 84.9964 154.697 85.1081C154.758 85.2197 154.787 85.3462 154.78 85.4733V85.6109H154.327V85.5701C154.336 85.4818 154.322 85.3925 154.286 85.3112C154.251 85.2299 154.194 85.1593 154.123 85.1065C153.873 84.9972 153.6 84.9517 153.328 84.9741H152.982C152.786 84.9706 152.59 84.9825 152.396 85.0097C152.288 85.0302 152.185 85.0736 152.095 85.1371C152.018 85.1879 151.961 85.2633 151.932 85.3511C151.894 85.5093 151.878 85.6723 151.886 85.835V86.752C151.879 86.9147 151.895 87.0775 151.932 87.2359C151.963 87.3223 152.02 87.3969 152.095 87.4499C152.185 87.5096 152.285 87.5512 152.391 87.5722C152.586 87.6024 152.784 87.6143 152.982 87.6078H153.328C153.507 87.6128 153.686 87.6026 153.863 87.5773C153.96 87.5588 154.052 87.5207 154.133 87.4652C154.204 87.4151 154.258 87.3438 154.286 87.2614C154.321 87.1199 154.335 86.974 154.327 86.8284V86.6246H153.231V86.2986H154.76V86.8539C154.779 87.0117 154.76 87.1717 154.706 87.3212C154.652 87.4707 154.564 87.6055 154.449 87.7148C154.111 87.9094 153.721 87.9948 153.333 87.9593H152.824C152.437 87.9958 152.049 87.9103 151.713 87.7148C151.597 87.606 151.508 87.4714 151.453 87.3219C151.398 87.1724 151.379 87.0121 151.397 86.8539L151.418 85.7433Z" fill="#1D1D1B"/>
    <path d="M156.383 87.9027V84.678H156.821V87.9027H156.383Z" fill="#1D1D1B"/>
    <path d="M158.488 86.8537H158.932V86.9149C158.924 87.0577 158.941 87.2008 158.983 87.3377C158.997 87.3801 159.019 87.4192 159.049 87.4525C159.079 87.4858 159.115 87.5126 159.156 87.5313C159.25 87.5682 159.35 87.5889 159.451 87.5924C159.584 87.5924 159.859 87.5924 160.277 87.5924C160.447 87.5964 160.618 87.5845 160.786 87.5567C160.888 87.5435 160.985 87.503 161.066 87.4396C161.105 87.3991 161.13 87.3474 161.138 87.2918C161.156 87.1996 161.165 87.1057 161.163 87.0117C161.183 86.8546 161.151 86.6952 161.071 86.5583C160.971 86.4801 160.846 86.442 160.72 86.4513L159.502 86.3698C159.233 86.378 158.967 86.3014 158.743 86.1507C158.667 86.0646 158.608 85.9636 158.573 85.854C158.537 85.7445 158.524 85.6287 158.534 85.5139C158.528 85.36 158.55 85.2062 158.601 85.0605C158.648 84.947 158.726 84.8484 158.825 84.7753C158.927 84.7114 159.042 84.6698 159.161 84.653C159.413 84.6224 159.666 84.6105 159.92 84.6173H160.063C160.349 84.6098 160.635 84.6251 160.918 84.6632C161.067 84.6913 161.209 84.7484 161.336 84.8313C161.414 84.8851 161.472 84.9616 161.504 85.0504C161.544 85.1668 161.563 85.2892 161.56 85.4121C161.563 85.4442 161.563 85.4767 161.56 85.5088V85.5649H161.117V85.4885C161.119 85.3961 161.11 85.3039 161.092 85.2134C161.081 85.1594 161.053 85.1107 161.01 85.0758C160.921 85.0191 160.82 84.9858 160.715 84.979C160.577 84.979 160.307 84.9536 159.915 84.9536C159.653 84.9267 159.389 84.9652 159.146 85.0656C159.056 85.1846 159.004 85.3272 158.995 85.4757C158.986 85.6243 159.02 85.7722 159.095 85.9011C159.206 85.9883 159.346 86.0318 159.487 86.0234L160.73 86.11C160.977 86.1048 161.219 86.1818 161.418 86.329C161.492 86.4135 161.547 86.5123 161.581 86.6192C161.616 86.7261 161.628 86.8389 161.616 86.9505C161.62 87.11 161.603 87.2693 161.565 87.4243C161.533 87.5255 161.475 87.6167 161.397 87.6892C161.288 87.7851 161.154 87.8486 161.01 87.8726C160.717 87.9213 160.42 87.9401 160.124 87.9286H159.925C159.666 87.9356 159.407 87.9203 159.151 87.8828C159.015 87.8595 158.886 87.8055 158.774 87.7249C158.674 87.6559 158.598 87.5582 158.555 87.4447C158.501 87.2997 158.477 87.1456 158.483 86.9913L158.488 86.8537Z" fill="#1D1D1B"/>
    <path d="M162.756 85.0193V84.678H165.716V85.0193H164.452V87.9027H164.014V85.0193H162.756Z" fill="#1D1D1B"/>
    <path d="M166.953 87.9027V84.678H167.386V87.9027H166.953Z" fill="#1D1D1B"/>
    <path d="M169.164 87.9027V84.678H169.602V86.0432H169.933L171.538 84.678H172.119L170.295 86.2063L172.333 87.8925H171.732L169.913 86.3642H169.577V87.8925L169.164 87.9027Z" fill="#1D1D1B"/>
    <path d="M176.159 85.7432C176.142 85.5872 176.159 85.4293 176.209 85.2805C176.259 85.1318 176.341 84.9959 176.449 84.8823C176.752 84.6901 177.111 84.6041 177.468 84.6377H177.932C178.284 84.6104 178.637 84.6828 178.951 84.8466C179.054 84.9324 179.135 85.0422 179.187 85.1665C179.238 85.2908 179.259 85.4258 179.246 85.5598V85.6973H178.793V85.6107C178.805 85.5174 178.794 85.4226 178.762 85.334C178.73 85.2455 178.678 85.1657 178.609 85.1013C178.387 84.992 178.138 84.9462 177.891 84.9689H177.585C177.415 84.9642 177.244 84.9761 177.076 85.0045C176.978 85.0253 176.886 85.067 176.806 85.1268C176.734 85.1808 176.681 85.2555 176.653 85.3407C176.612 85.5073 176.597 85.679 176.607 85.8502V86.7671C176.599 86.9298 176.615 87.0928 176.653 87.2511C176.68 87.337 176.733 87.412 176.806 87.4651C176.883 87.5268 176.974 87.5687 177.071 87.5873C177.239 87.6162 177.41 87.6282 177.58 87.623H177.886C178.137 87.6483 178.39 87.6005 178.614 87.4854C178.683 87.4145 178.734 87.3292 178.765 87.2357C178.796 87.1423 178.805 87.0431 178.793 86.9454V86.8537C178.795 86.8334 178.795 86.8129 178.793 86.7926H179.246V87.0066C179.261 87.1455 179.243 87.2861 179.192 87.4165C179.142 87.5468 179.061 87.6631 178.956 87.7554C178.643 87.9208 178.289 87.9933 177.937 87.9643H177.473C177.116 87.9979 176.758 87.9119 176.454 87.7198C176.346 87.6064 176.263 87.4705 176.213 87.3217C176.163 87.1729 176.146 87.0149 176.164 86.8588L176.159 85.7432Z" fill="#1D1D1B"/>
    <path d="M180.694 85.7433C180.676 85.5851 180.695 85.4248 180.75 85.2753C180.805 85.1258 180.894 84.9912 181.01 84.8824C181.346 84.6869 181.734 84.6014 182.121 84.6379H182.63C183.019 84.6024 183.41 84.6859 183.751 84.8773C183.864 84.989 183.95 85.1251 184.003 85.2751C184.056 85.4251 184.075 85.5852 184.056 85.7433V86.8539C184.075 87.0117 184.057 87.1717 184.003 87.3212C183.949 87.4707 183.861 87.6055 183.746 87.7148C183.408 87.9094 183.018 87.9948 182.63 87.9593H182.121C181.734 87.9958 181.346 87.9103 181.01 87.7148C180.894 87.606 180.805 87.4714 180.75 87.3219C180.695 87.1724 180.676 87.0121 180.694 86.8539V85.7433ZM182.493 84.9741H182.248C182.05 84.9702 181.853 84.9822 181.657 85.0097C181.549 85.0311 181.447 85.0744 181.357 85.1371C181.279 85.1898 181.222 85.2669 181.193 85.3561C181.156 85.5129 181.141 85.674 181.148 85.835V86.752C181.14 86.9113 181.156 87.0708 181.193 87.2257C181.222 87.3163 181.279 87.3951 181.357 87.4499C181.448 87.5088 181.55 87.5502 181.657 87.5722C181.853 87.6024 182.05 87.6143 182.248 87.6078H182.493C182.69 87.6141 182.888 87.6022 183.083 87.5722C183.191 87.5512 183.293 87.5097 183.384 87.4499C183.459 87.3969 183.516 87.3223 183.547 87.2359C183.585 87.0775 183.6 86.9147 183.593 86.752V85.835C183.602 85.672 183.585 85.5086 183.542 85.3511C183.514 85.2618 183.456 85.1847 183.379 85.132C183.289 85.0723 183.189 85.0307 183.083 85.0097C182.888 84.9795 182.69 84.9676 182.493 84.9741Z" fill="#1D1D1B"/>
    <path d="M8.47721 64.6479L7.7793 65.784C7.7793 65.5038 7.7793 65.3051 7.7793 65.0708V65.0351C8.02382 64.9078 8.25306 64.7804 8.47721 64.6479Z" fill="#EA5B0C"/>
</svg>
